<svg xmlns="http://www.w3.org/2000/svg" width="64" height="64" shape-rendering="geometricPrecision" text-rendering="geometricPrecision" image-rendering="optimizeQuality" fill-rule="evenodd" clip-rule="evenodd" viewBox="0 0 640 640"><path fill-rule="nonzero" d="M234.2 122.4h-89.5L0 312.6 144.7 503h89.5L89.6 312.6l144.6-190.2zm171.6 0h89.6L640 312.6 495.4 503h-89.6l144.6-190.3-144.6-190.2zm-40.3-66.7l31 7.2c4.9 1.2 8 6 6.8 11L286.1 577.5c-1.1 4.8-6 7.9-10.9 6.8l-31-7.3c-4.9-1-8-6-6.8-10.9L354.6 62.5c1.1-4.9 6-8 10.9-6.8z"/></svg>